P2
140 87
255
254 
254 254 254 254 254 254 254 254 254 254 254 254 254 254 254 254 254 254 254 
254 254 254 254 254 254 254 254 254 254 252 254 252 252 254 252 254 254 254 
254 254 254 254 254 254 254 254 254 254 254 254 254 254 254 254 254 254 254 
254 254 254 254 254 254 254 254 254 254 254 254 254 254 254 254 254 254 254 
254 254 254 254 254 254 254 254 254 254 254 254 254 254 254 254 254 254 254 
254 254 254 254 254 254 254 254 254 254 254 254 254 254 254 254 254 254 254 
254 254 254 254 254 254 254 254 254 254 254 254 254 254 254 254 254 254 254 
254 254 254 254 254 254 254 254 254 254 254 254 254 254 254 254 254 254 254 
254 254 254 254 254 254 254 254 254 254 254 254 254 254 252 252 252 254 252 
254 254 252 254 254 252 254 252 252 254 252 252 252 252 252 254 252 254 254 
254 254 254 254 254 254 254 254 254 254 254 254 254 254 254 254 254 254 254 
254 254 254 254 254 254 254 254 254 254 254 254 254 254 254 254 254 254 254 
254 254 254 254 254 254 254 254 254 254 254 254 254 254 254 254 254 254 254 
254 254 254 254 254 254 254 254 254 254 254 254 254 254 254 254 254 254 254 
254 254 254 254 254 254 254 254 254 254 254 254 254 254 254 254 254 254 254 
254 254 254 254 254 254 254 254 254 254 254 254 254 254 254 254 254 254 254 
254 252 254 254 252 252 254 252 252 254 252 252 252 254 252 252 254 252 252 
252 252 252 254 252 254 254 254 254 254 254 254 254 254 254 254 254 254 254 
254 254 254 254 254 254 254 254 254 254 254 254 254 254 254 254 254 254 254 
254 254 254 254 254 254 254 254 254 254 254 254 254 254 254 254 254 254 254 
254 254 254 254 254 254 254 254 254 254 254 254 254 254 254 254 254 254 254 
254 254 254 254 254 254 254 254 254 254 254 254 254 254 254 254 254 254 254 
254 254 254 254 254 254 254 254 254 254 254 254 254 254 254 254 254 254 254 
254 254 254 254 254 254 254 254 254 252 252 254 252 252 252 252 252 252 254 
254 254 254 254 254 252 254 252 254 252 254 254 254 254 254 254 254 254 254 
254 254 254 254 254 254 254 254 254 254 254 254 254 254 254 254 254 254 254 
254 254 254 254 254 254 254 254 254 254 254 254 254 254 254 254 254 254 254 
254 254 254 254 254 254 254 254 254 254 254 254 254 254 254 254 254 254 254 
254 254 254 254 254 254 254 254 254 254 254 254 254 254 254 254 254 254 254 
254 254 254 254 254 254 254 254 254 254 254 254 254 254 254 254 254 254 254 
254 254 254 254 254 254 254 254 254 254 252 252 254 252 252 252 252 252 251 
252 251 251 251 251 252 252 252 254 252 252 252 252 251 252 251 252 252 252 
252 254 252 252 252 254 252 252 254 252 254 254 254 254 254 254 254 254 254 
254 254 254 254 254 254 254 254 254 254 254 254 254 254 254 254 254 254 254 
254 254 254 254 254 254 254 254 254 254 254 254 254 254 254 254 254 254 254 
254 254 254 254 254 254 254 254 254 254 254 254 254 254 254 254 254 254 254 
254 254 254 254 254 254 254 254 254 254 254 254 254 254 254 254 254 254 254 
254 254 254 254 254 254 254 254 254 254 254 254 254 254 254 254 254 254 254 
252 254 254 251 254 251 250 251 250 246 247 250 251 251 251 252 251 251 254 
251 247 249 250 251 252 251 254 252 252 252 252 252 254 254 254 254 254 254 
254 254 254 254 254 254 254 254 254 254 254 254 254 254 254 254 254 254 254 
254 254 254 254 254 254 254 254 254 254 254 254 254 254 254 254 254 254 254 
254 254 254 254 254 254 254 254 254 254 254 254 254 254 254 254 254 254 254 
254 254 254 254 254 254 254 254 254 254 254 254 254 254 254 254 254 254 254 
254 254 254 254 254 254 254 254 254 254 254 254 254 254 254 254 254 254 254 
254 254 254 254 254 252 252 254 252 252 252 252 251 250 249 249 254 254 247 
250 251 251 254 252 252 252 251 254 254 249 251 254 251 252 254 254 254 254 
254 252 252 252 252 254 254 254 254 254 254 254 254 254 254 254 254 254 254 
254 254 254 254 254 254 254 254 254 254 254 254 254 254 254 254 254 254 254 
254 254 254 254 254 254 254 254 254 254 254 254 254 254 254 254 254 254 254 
254 254 254 254 254 254 254 254 254 254 254 254 254 254 252 254 252 252 252 
252 252 252 252 252 252 254 252 254 254 254 254 254 254 254 254 254 254 254 
254 254 254 254 254 254 254 254 254 254 254 254 252 252 252 250 252 251 250 
250 249 247 247 166 205 247 247 249 250 252 251 251 251 251 179 195 251 249 
251 252 251 252 249 250 251 252 252 252 254 252 254 254 254 254 254 254 254 
254 254 254 254 254 254 254 254 254 254 254 254 254 254 254 254 254 254 254 
254 254 254 254 254 254 254 254 254 254 254 254 254 254 254 254 254 254 254 
254 254 254 254 254 254 254 254 254 254 254 254 254 254 254 254 254 254 254 
254 254 252 254 252 252 254 252 252 252 254 252 254 252 254 252 252 254 254 
254 254 254 254 254 254 254 254 254 254 254 254 254 254 254 254 254 254 254 
252 252 251 250 245 246 244 247 245 243 244 39 141 250 243 247 249 250 249 
249 249 249 59 106 250 244 249 247 249 249 247 251 251 251 251 252 252 252 
254 254 254 254 254 254 254 254 254 254 254 254 254 254 254 254 254 254 254 
254 254 254 254 254 254 254 254 254 254 254 254 254 254 254 254 254 254 254 
254 254 254 254 254 254 254 254 254 254 254 254 254 254 254 254 254 254 254 
254 254 254 254 254 254 254 254 254 251 254 252 251 252 252 251 252 252 251 
252 254 252 254 254 254 254 254 254 254 254 254 254 254 254 254 254 254 254 
254 254 254 254 254 254 254 251 254 251 245 254 254 254 254 254 254 254 50 
161 254 254 254 254 254 254 254 254 254 75 122 254 254 254 254 254 254 254 
249 249 252 250 254 251 254 254 254 254 254 254 254 254 254 254 254 254 254 
254 254 254 254 254 254 254 254 254 254 254 254 254 254 254 254 254 254 254 
254 254 254 254 254 254 254 254 254 254 254 254 254 254 254 254 254 254 254 
254 254 254 254 254 254 254 252 254 252 252 254 252 254 252 252 252 252 251 
250 251 251 250 251 251 250 251 252 252 252 252 254 254 254 254 254 254 254 
254 254 254 254 254 254 254 254 254 254 254 254 254 254 252 252 251 247 190 
142 145 148 146 142 146 43 90 156 146 148 144 148 147 147 146 152 56 74 
151 145 150 141 148 147 213 251 249 251 247 252 252 252 254 254 254 254 254 
254 254 254 254 254 254 254 254 254 254 254 254 254 254 254 254 254 254 254 
254 254 254 254 254 254 254 254 254 254 254 254 254 254 254 254 254 254 254 
254 254 254 254 254 254 254 254 254 252 254 252 252 252 254 252 254 254 252 
254 252 254 254 251 254 251 250 252 250 250 249 246 247 247 251 254 251 251 
254 254 254 254 254 254 254 254 254 254 254 254 254 254 254 254 254 254 254 
254 254 252 251 252 228 45 15 17 21 21 26 15 37 29 21 18 19 21 
23 21 21 23 18 34 26 24 20 23 23 25 3 106 251 245 250 251 254 
252 252 254 254 254 254 254 254 254 254 254 254 254 254 254 254 254 254 254 
254 254 254 254 254 254 254 254 254 254 254 254 254 254 254 254 254 254 254 
254 254 254 254 254 254 254 254 254 254 254 254 254 254 254 254 254 254 254 
254 254 252 254 251 252 254 252 254 252 252 252 252 249 250 250 249 250 254 
254 254 254 247 251 251 251 254 254 254 254 254 254 254 254 254 254 254 254 
254 254 254 254 254 254 254 252 254 252 251 254 214 42 37 36 32 37 36 
40 46 35 37 40 41 35 40 36 37 36 36 36 39 39 39 34 37 41 
34 84 249 250 251 251 254 252 254 254 254 254 254 254 254 254 254 254 254 
254 254 254 254 254 254 254 254 254 254 254 254 254 254 254 254 254 254 254 
254 254 254 254 254 254 254 254 254 254 254 254 254 254 254 254 254 254 254 
254 254 254 254 252 254 252 252 252 252 252 252 251 251 251 251 251 252 250 
249 246 251 254 254 249 212 159 144 199 254 247 250 249 254 254 254 254 254 
254 254 254 254 254 254 254 254 254 254 254 254 254 254 254 254 251 250 252 
219 42 34 36 35 32 35 26 17 30 31 34 35 35 39 35 36 36 36 
23 17 24 40 32 30 41 24 86 250 251 252 250 254 252 252 254 254 254 
254 254 254 254 254 254 254 254 254 254 254 254 254 254 254 254 254 254 254 
254 254 254 254 254 254 254 254 254 254 254 254 254 254 254 254 254 254 254 
254 254 254 254 254 254 254 254 254 254 254 251 254 251 250 251 251 251 250 
251 252 251 247 250 247 249 254 254 251 212 150 81 35 15 24 23 139 251 
251 245 254 254 254 254 254 254 254 254 254 254 254 254 254 254 254 254 254 
254 254 254 254 252 250 254 221 41 35 39 32 29 43 119 135 53 32 35 
36 35 37 35 36 36 25 79 140 92 25 34 36 39 21 90 251 251 251 
251 254 252 254 254 254 254 254 254 254 254 254 254 254 254 254 254 254 254 
254 254 254 254 254 254 254 254 254 254 254 254 254 254 254 254 254 254 254 
254 254 254 254 254 254 254 254 254 254 254 252 252 252 252 252 252 252 251 
252 251 251 252 251 251 251 251 247 245 249 254 254 251 205 147 85 29 21 
28 34 40 37 37 20 189 254 247 254 254 254 254 254 254 254 254 254 254 
254 254 254 254 254 254 254 254 254 254 254 252 251 254 221 42 37 36 35 
26 177 254 254 219 51 32 39 32 36 34 36 26 102 249 254 250 116 24 
36 36 26 86 252 252 252 250 254 252 254 254 254 254 254 254 254 254 254 
254 254 254 254 254 254 254 254 254 254 254 254 254 254 254 254 254 254 254 
254 254 254 254 254 254 254 254 254 254 254 254 254 254 254 254 254 252 254 
254 254 254 254 254 254 252 254 252 249 251 250 249 247 247 254 254 246 207 
144 83 37 17 23 35 40 40 35 31 37 40 14 124 252 249 254 254 254 
254 254 254 254 254 254 254 254 254 254 254 254 254 254 254 254 254 254 251 
251 254 219 40 36 36 23 70 254 243 241 254 118 17 41 36 34 34 37 
23 190 252 239 252 216 30 36 43 19 87 251 251 251 251 254 252 254 254 
254 254 254 254 254 254 254 254 254 254 254 254 254 254 254 254 254 254 254 
254 254 254 254 254 254 254 254 254 254 254 254 254 254 254 254 254 254 254 
254 254 254 254 252 254 252 252 252 252 252 251 251 251 251 249 249 249 250 
254 254 244 208 137 79 36 15 28 35 36 37 36 36 32 36 31 32 43 
17 135 252 246 254 254 254 254 254 254 254 254 254 254 254 254 254 254 254 
254 254 254 254 254 254 252 251 254 221 41 36 36 31 61 238 254 249 254 
98 23 41 34 34 35 40 20 163 254 246 254 183 23 31 37 23 87 250 
250 250 252 254 252 254 254 254 254 254 254 254 254 254 254 254 254 254 254 
254 254 254 254 254 254 254 254 254 254 254 254 254 254 254 254 254 254 254 
254 254 254 254 254 254 254 254 254 254 254 254 252 251 254 252 250 252 251 
252 247 246 251 254 254 247 201 142 72 30 21 25 30 39 37 32 31 35 
36 32 35 34 35 40 40 31 192 254 247 254 254 254 254 254 254 254 254 
254 254 254 254 254 254 254 254 254 254 254 252 254 252 251 254 219 41 36 
34 36 29 109 227 236 146 28 36 30 34 36 35 37 28 52 199 240 200 
70 31 34 35 25 86 251 251 251 251 254 252 254 254 254 254 254 254 254 
254 254 254 254 254 254 254 254 254 254 254 254 254 254 254 254 254 254 254 
254 254 254 254 254 254 254 254 254 254 254 254 254 254 254 254 254 254 252 
252 252 251 251 251 250 246 250 254 254 252 199 134 72 31 21 24 36 37 
40 37 34 35 36 35 35 35 35 34 34 32 42 21 68 245 250 247 254 
254 254 254 254 254 254 254 254 254 254 254 254 254 254 254 254 254 254 254 
254 252 251 254 221 41 35 36 41 34 35 51 58 24 34 37 31 32 37 
36 35 37 29 34 67 36 28 36 35 39 23 90 251 251 251 252 254 252 
254 254 254 254 254 254 254 254 254 254 254 254 254 254 254 254 254 254 254 
254 254 254 254 254 254 254 254 254 254 254 254 254 254 254 254 254 254 254 
254 254 254 254 254 254 251 254 251 251 251 249 251 254 238 201 133 75 32 
20 24 35 40 36 37 35 32 35 34 35 35 36 35 35 37 36 35 34 
35 20 127 254 246 250 254 254 254 254 254 254 254 254 254 254 254 254 254 
254 254 254 254 254 254 252 254 252 251 254 221 41 36 34 28 35 39 36 
29 42 35 31 39 31 37 36 34 36 39 32 31 34 39 35 35 36 24 
89 251 251 251 252 254 252 254 254 254 254 254 254 254 254 254 254 254 254 
254 254 254 254 254 254 254 254 254 254 254 254 254 254 254 254 254 254 254 
254 254 254 254 254 254 254 254 252 254 252 252 252 251 252 251 251 249 251 
250 147 57 29 19 23 36 39 37 32 34 34 32 36 34 32 35 35 34 
34 34 34 36 35 32 35 36 26 202 252 245 249 254 254 254 254 254 254 
254 254 254 254 254 254 254 254 254 254 254 254 254 252 254 252 251 254 221 
41 36 35 31 31 35 40 43 37 36 36 39 36 36 36 36 36 37 41 
32 40 34 35 35 37 24 86 251 251 251 252 254 252 254 254 254 254 254 
254 254 254 254 254 254 254 254 254 254 254 254 254 254 254 254 254 254 254 
254 254 254 254 254 254 254 254 254 254 254 254 254 254 254 254 254 254 254 
254 252 254 249 247 249 250 119 14 25 39 40 36 36 34 37 35 35 36 
35 35 36 35 35 35 35 35 35 35 34 35 35 32 29 67 244 252 251 
252 254 254 254 254 254 254 254 254 254 254 254 254 254 254 254 254 254 254 
254 252 254 252 251 254 219 40 35 34 29 36 34 24 28 29 26 28 26 
28 28 28 29 26 25 28 30 28 35 36 34 39 23 87 251 251 251 252 
254 252 254 254 254 254 254 254 254 254 254 254 254 254 254 254 254 254 254 
254 254 254 254 254 254 254 254 254 254 254 254 254 254 254 254 254 254 254 
254 254 254 252 254 252 252 252 252 252 250 249 254 116 17 40 36 30 32 
35 35 35 35 36 36 35 36 36 35 36 36 36 36 36 36 35 35 35 
34 37 14 134 254 250 252 252 254 254 254 254 254 254 254 254 254 254 254 
254 254 254 252 254 252 252 252 251 254 252 250 254 221 41 36 35 34 34 
45 67 61 61 61 59 61 58 57 58 57 58 63 56 64 65 42 34 35 
37 24 87 251 250 250 252 252 252 252 254 252 254 254 254 254 254 254 254 
254 254 254 254 254 254 254 254 254 254 254 254 254 254 254 254 254 254 254 
254 254 254 254 254 254 254 254 254 254 251 254 251 250 251 251 250 247 249 
116 19 37 34 34 36 35 35 35 35 35 35 35 35 35 35 36 35 35 
35 35 35 35 35 34 36 34 39 26 200 252 250 252 252 254 254 254 254 
254 254 254 254 254 254 254 254 254 252 254 252 252 254 254 252 252 252 251 
254 221 40 35 34 36 23 125 254 246 249 250 250 249 250 250 249 250 250 
245 250 247 241 68 26 36 39 23 86 251 251 251 251 254 252 254 254 254 
254 254 254 254 254 254 254 254 254 254 254 254 254 254 254 254 254 254 254 
254 254 254 254 254 254 254 254 254 254 254 254 252 254 252 252 252 252 252 
252 250 251 249 251 249 113 19 39 34 36 34 32 35 36 34 36 36 36 
36 36 36 36 36 36 36 36 36 36 36 35 35 35 36 25 70 243 251 
252 251 254 254 254 254 254 254 254 254 254 254 254 254 254 252 254 252 254 
252 252 252 251 252 251 250 252 219 42 36 35 36 29 86 167 155 158 159 
159 159 158 158 158 158 158 158 159 159 153 57 30 35 36 24 89 250 250 
249 252 252 251 252 252 252 254 252 254 254 254 254 254 254 254 254 254 254 
254 254 254 254 254 254 254 254 254 254 254 254 254 254 254 254 254 254 254 
254 254 254 254 254 251 254 251 249 250 249 246 119 19 40 32 34 34 36 
36 36 34 37 35 32 35 35 35 34 35 36 35 36 36 36 36 36 35 
36 34 39 18 134 254 249 252 252 254 254 254 254 254 254 254 254 254 254 
254 254 254 254 252 252 252 252 251 251 251 250 251 249 252 221 42 36 40 
39 39 31 26 20 20 21 21 20 21 23 21 21 23 25 20 24 26 34 
40 35 41 28 87 252 250 250 246 251 252 252 254 252 254 254 254 254 254 
254 254 254 254 254 254 254 254 254 254 254 254 254 254 254 254 254 254 254 
254 254 254 254 254 254 254 252 254 252 252 252 252 252 251 247 252 254 117 
21 39 34 35 34 35 34 34 36 37 32 32 40 35 34 34 31 34 35 
34 36 36 36 36 36 35 36 35 36 29 194 254 250 252 252 252 254 254 
254 254 254 254 254 254 254 254 254 254 252 252 251 250 251 251 250 249 250 
250 247 251 213 30 24 23 21 20 23 28 23 26 26 25 26 24 21 23 
21 21 25 24 25 26 21 23 20 26 6 83 250 246 251 247 251 251 252 
251 252 254 252 254 254 254 254 254 254 254 254 254 254 254 254 254 254 254 
254 254 254 254 254 254 254 254 254 254 254 254 254 254 251 254 251 251 250 
251 251 250 249 251 113 19 40 35 35 35 34 32 35 40 39 35 37 40 
35 31 34 35 34 35 36 35 36 36 36 36 36 35 35 37 25 70 244 
247 249 254 251 254 254 254 254 254 254 254 254 254 254 254 254 254 252 254 
251 251 250 249 249 246 244 250 252 254 254 145 89 96 102 96 100 98 97 
100 98 98 100 98 97 97 97 97 98 97 97 98 98 96 101 98 90 191 
254 254 249 247 246 247 249 249 251 254 252 254 254 254 254 254 254 254 254 
252 252 252 252 252 252 252 252 252 252 252 252 252 252 252 252 252 252 252 
254 254 252 252 252 251 251 251 250 250 249 109 23 37 35 36 35 35 32 
31 36 32 21 15 21 18 34 37 32 36 35 36 35 36 35 35 36 35 
36 36 35 39 20 128 254 247 250 254 251 254 254 254 254 254 254 254 254 
254 254 254 254 254 252 252 251 250 254 254 254 254 254 254 228 168 170 177 
173 172 172 169 174 169 172 172 170 170 170 170 170 170 170 170 170 170 170 
169 172 170 172 172 174 175 161 185 244 254 254 254 254 254 252 254 252 254 
254 254 254 254 254 254 254 254 254 254 254 252 254 254 254 254 254 254 254 
254 254 254 254 254 254 254 252 252 252 254 252 251 250 249 250 250 117 19 
39 39 35 36 35 34 36 35 20 63 122 155 152 124 69 21 31 37 37 
36 34 35 36 36 36 36 35 35 36 34 29 196 252 246 252 252 252 252 
254 254 254 254 254 254 254 254 254 254 254 254 251 254 247 251 184 101 103 
109 95 196 122 9 25 20 19 23 21 21 23 21 23 23 23 21 23 21 
21 21 21 21 21 23 21 21 21 24 23 24 21 19 21 10 191 172 91 
109 113 105 207 254 251 254 254 254 254 254 254 254 254 252 252 251 251 252 
251 252 252 252 251 252 252 252 252 251 252 252 252 252 254 254 251 252 252 
246 249 250 250 116 19 41 36 32 32 34 35 37 32 24 141 234 254 254 
254 254 236 153 37 29 40 32 34 36 35 35 36 35 36 34 39 29 63 
244 250 247 251 252 252 254 254 254 254 254 254 254 254 254 254 254 254 254 
252 252 246 254 145 8 20 23 3 161 103 20 41 37 37 35 36 37 36 
36 37 39 37 37 39 37 36 37 36 37 37 37 37 37 37 37 37 37 
37 37 42 15 175 120 1 25 18 13 189 254 250 254 254 254 254 254 254 
254 254 252 251 251 251 251 251 250 250 251 247 250 252 252 251 250 251 251 
252 252 251 251 252 252 251 247 247 249 119 19 40 37 35 34 34 35 36 
31 35 175 254 250 239 247 241 247 245 254 188 39 35 34 35 35 35 35 
35 34 35 31 40 18 130 254 249 250 250 252 252 252 254 254 254 254 254 
254 254 254 254 254 254 254 252 251 250 252 155 20 40 42 21 172 105 21 
39 35 34 34 35 36 35 36 35 34 35 35 35 36 37 36 36 36 36 
36 36 36 36 35 35 35 35 34 39 19 183 133 17 47 42 31 191 254 
251 254 254 254 254 254 254 254 254 250 251 249 247 247 251 254 250 249 243 
249 250 250 250 252 252 251 252 254 249 249 251 252 250 249 247 118 21 40 
37 34 34 36 32 36 39 19 131 254 247 247 251 250 251 249 250 243 254 
145 23 42 30 34 36 34 36 32 34 32 37 31 194 252 247 250 251 251 
254 251 254 254 254 254 254 254 254 254 254 254 254 254 252 252 249 254 150 
20 34 39 17 169 107 23 40 36 35 35 35 34 35 34 35 35 35 35 
34 35 36 35 35 36 35 34 35 34 34 35 35 35 35 34 40 19 183 
130 17 36 35 32 191 254 251 254 254 254 254 254 254 254 254 251 250 244 
251 254 240 244 254 254 254 254 254 252 249 250 250 250 250 251 250 250 252 
251 251 249 111 19 40 32 32 34 36 35 34 36 31 47 225 251 245 250 
250 252 252 250 251 249 249 238 54 30 36 35 35 35 35 35 35 34 26 
69 241 251 252 251 251 252 252 251 254 254 254 254 254 254 254 254 254 254 
254 254 252 252 249 254 150 18 34 41 18 168 109 21 39 35 34 34 34 
36 34 36 35 34 35 34 34 34 35 34 35 35 36 36 36 36 36 35 
35 35 36 35 40 18 181 131 14 39 39 32 190 254 251 254 254 254 254 
254 254 254 254 252 241 254 217 107 67 70 91 128 159 186 217 240 250 254 
254 254 254 254 249 251 247 250 251 112 21 37 34 39 37 35 34 35 37 
35 26 102 251 247 250 249 249 252 250 251 251 251 244 252 113 24 37 35 
35 35 35 34 35 40 21 133 254 246 251 251 251 254 251 252 254 254 254 
254 254 254 254 254 254 254 254 254 252 252 250 254 151 21 35 36 18 170 
107 20 39 34 35 35 35 35 34 36 34 35 35 36 36 36 36 36 36 
36 36 36 35 35 35 34 37 35 34 34 37 20 180 131 15 37 37 31 
192 254 251 254 254 254 254 254 254 254 254 251 251 230 65 20 30 28 20 
17 23 32 42 58 84 117 148 178 205 236 251 244 249 247 118 20 39 35 
35 36 35 35 35 35 36 37 19 129 252 249 251 254 252 252 251 252 251 
252 247 252 146 15 37 34 35 34 36 34 31 31 34 196 252 249 251 250 
252 252 251 252 254 254 254 254 254 254 254 254 254 254 254 254 251 252 249 
254 150 20 34 37 19 172 106 20 39 35 36 34 36 36 42 36 40 39 
37 39 39 39 37 39 39 39 39 39 39 37 37 40 32 37 32 35 39 
19 179 131 15 37 37 31 191 254 251 254 254 254 254 254 254 254 254 249 
254 144 18 37 35 36 37 36 37 36 29 31 29 18 20 25 35 53 74 
224 252 112 17 42 35 31 35 36 35 35 35 36 35 36 19 127 252 249 
251 252 251 252 252 252 251 252 247 252 142 19 35 34 35 35 35 35 39 
25 72 243 252 251 251 251 252 254 252 252 254 254 254 254 254 254 254 254 
254 254 254 254 252 252 250 254 151 19 35 39 18 172 107 21 40 35 35 
34 32 26 21 24 20 24 23 21 21 21 20 21 21 21 21 21 21 21 
21 30 41 29 36 35 37 18 179 130 17 39 37 30 192 254 251 254 254 
254 254 254 254 254 254 247 252 111 25 31 34 35 34 34 34 35 32 36 
39 39 31 34 39 21 164 250 108 18 37 31 36 39 35 34 35 35 35 
35 35 41 20 89 254 246 249 250 249 249 250 249 249 250 247 249 108 14 
40 36 34 36 34 36 39 23 129 254 249 254 252 254 254 254 254 254 254 
254 254 254 254 254 254 254 254 254 254 254 251 252 249 254 150 20 34 39 
19 173 108 20 41 34 34 35 25 83 124 122 118 120 120 122 122 122 120 
122 122 122 122 120 120 120 122 63 28 36 36 30 37 19 178 129 18 39 
39 30 191 254 251 254 254 254 254 254 254 254 254 247 254 131 18 39 35 
32 35 36 35 34 35 34 36 34 37 30 28 175 254 108 19 41 36 34 
34 34 36 36 35 35 34 36 36 35 32 45 221 251 245 250 251 251 252 
251 252 249 251 232 46 31 32 35 35 35 35 36 35 29 192 252 250 251 
254 252 252 254 252 252 254 254 254 254 254 254 254 254 254 254 254 254 252 
251 250 254 151 19 35 41 20 172 107 24 40 35 37 24 114 250 254 254 
254 254 254 254 254 254 254 254 254 254 254 254 254 254 254 218 61 30 37 
35 37 15 179 130 18 42 36 31 191 254 251 254 254 254 254 254 254 254 
254 251 250 214 36 34 37 34 34 37 34 32 36 35 32 40 29 29 179 
254 113 23 36 35 35 37 34 35 35 34 35 35 35 35 34 31 42 19 
105 254 246 245 245 251 245 250 246 249 254 113 21 41 34 32 35 34 36 
35 29 70 243 251 252 252 252 254 254 254 254 254 254 254 254 254 254 254 
254 254 254 254 252 254 252 252 250 254 151 21 32 37 19 173 106 23 37 
35 39 21 185 254 246 249 247 250 251 250 251 249 250 249 249 250 247 247 
244 246 250 254 114 24 37 35 34 19 178 131 15 42 37 30 190 254 251 
254 254 254 254 254 254 254 254 252 247 254 179 21 35 37 39 32 34 35 
35 35 37 34 31 170 254 112 18 34 31 37 31 35 32 34 35 34 34 
35 35 35 34 34 35 39 26 142 251 250 245 246 247 247 250 254 141 29 
42 35 35 36 36 35 32 42 17 170 251 245 254 252 252 254 254 254 254 
254 254 254 254 254 254 254 254 254 254 254 254 254 251 254 247 254 152 23 
36 42 15 170 106 20 37 34 37 23 184 252 246 250 252 251 252 251 252 
251 251 246 249 251 245 251 251 247 245 252 120 20 37 37 36 20 177 133 
20 37 37 26 195 254 251 254 254 254 254 254 254 254 254 252 246 245 254 
179 28 31 35 39 36 34 34 39 32 26 169 254 109 24 36 34 32 36 
34 35 35 37 35 35 37 35 34 35 34 35 35 36 37 20 96 210 250 
254 254 252 213 111 24 36 37 37 36 30 35 35 41 18 142 251 246 249 
251 252 252 254 254 254 254 254 254 254 254 254 254 254 254 254 254 254 254 
254 252 252 245 252 148 14 32 30 10 164 106 23 36 35 39 23 181 254 
249 251 251 252 252 252 252 251 250 246 250 245 247 221 234 250 243 252 114 
18 42 34 39 17 183 128 8 29 24 26 189 254 250 254 254 254 254 254 
254 254 254 251 246 247 243 254 175 31 37 36 32 37 31 35 25 179 254 
108 21 39 35 34 35 35 35 36 34 41 40 37 41 36 34 31 34 36 
35 35 37 37 18 40 79 116 114 86 34 23 39 34 34 36 35 37 36 
36 21 137 254 245 250 250 252 252 252 254 254 254 254 254 254 254 254 254 
254 254 254 254 254 254 254 254 252 252 249 254 167 50 72 68 51 184 106 
20 36 35 37 23 183 254 247 252 252 252 254 252 252 252 250 247 247 254 
175 36 85 243 249 254 116 19 40 36 36 19 184 147 51 72 74 58 205 
254 251 254 254 254 254 254 254 254 254 252 249 249 251 240 254 180 24 31 
35 37 35 32 174 254 116 14 41 32 36 34 35 34 36 35 40 23 18 
18 18 36 40 34 35 35 35 35 32 34 39 32 26 17 21 25 30 39 
37 35 36 35 31 37 36 25 137 254 245 247 246 246 251 252 252 254 254 
254 254 254 254 254 254 254 254 254 254 254 254 254 254 254 251 252 250 251 
225 197 197 202 197 234 98 20 37 34 40 24 185 254 249 251 252 251 252 
251 252 247 246 246 254 174 39 17 63 243 250 254 114 21 40 32 42 17 
172 233 190 200 202 197 235 254 251 254 254 254 254 254 254 254 254 250 249 
250 250 254 246 254 178 32 35 32 21 178 254 116 18 36 34 39 34 34 
36 36 35 36 20 95 188 195 129 32 39 43 31 36 34 36 35 32 32 
36 41 40 39 35 37 35 36 32 32 36 37 39 18 139 254 245 250 250 
251 249 252 252 252 254 254 254 254 254 254 254 254 254 254 254 254 254 254 
254 254 254 252 252 247 252 153 26 45 40 20 174 112 23 37 34 41 24 
183 252 245 251 251 251 252 252 252 247 240 252 175 34 26 47 213 251 243 
252 112 18 41 32 42 14 184 131 18 48 40 41 196 254 250 254 254 254 
254 254 254 254 254 251 250 251 252 252 250 243 254 178 31 26 177 254 111 
17 37 35 35 35 35 34 34 31 39 17 147 230 139 129 201 205 36 32 
42 32 35 32 36 34 36 34 34 36 35 37 35 36 36 36 36 32 39 
23 144 254 243 245 252 251 252 251 251 254 251 254 254 254 254 254 254 254 
254 254 254 254 254 254 254 254 254 254 252 252 247 254 150 18 36 36 12 
170 106 18 39 34 40 24 184 251 246 247 249 249 250 249 250 247 254 173 
31 23 51 210 250 240 245 251 123 18 41 35 32 18 179 127 12 36 39 
30 191 254 251 254 254 254 254 254 254 254 254 254 252 254 251 252 250 247 
244 254 170 167 254 108 20 36 36 35 35 34 34 29 40 36 17 157 219 
59 17 23 18 185 214 36 32 37 34 35 30 34 39 34 32 36 34 35 
35 35 31 36 37 41 21 137 254 245 247 252 252 252 252 252 252 252 252 
254 254 254 254 254 254 254 254 254 254 254 254 254 254 254 254 254 252 252 
247 252 150 21 36 43 14 170 108 21 39 35 42 23 163 254 246 254 254 
254 254 254 254 254 179 26 31 59 216 254 254 252 254 254 89 25 35 35 
35 15 179 130 17 42 37 32 197 254 251 254 254 254 254 254 254 254 254 
252 254 252 251 252 251 249 247 246 251 254 106 18 42 36 34 35 36 36 
32 37 34 19 158 218 54 26 42 40 37 17 185 208 47 30 36 29 34 
35 32 35 36 35 35 35 35 34 35 35 35 19 141 254 246 250 247 252 
252 252 254 254 254 254 254 254 254 254 254 254 254 254 254 254 254 254 254 
254 254 254 254 254 251 252 249 254 151 24 39 39 15 172 107 23 39 36 
40 30 53 181 214 212 213 216 216 213 223 170 34 32 42 180 223 216 217 
214 219 145 32 36 37 32 36 18 179 129 18 37 41 31 194 254 251 254 
254 254 254 254 254 254 254 252 252 252 252 251 251 246 246 245 251 105 12 
39 36 36 35 36 35 36 37 36 20 155 222 53 24 40 35 39 36 32 
23 186 203 35 35 39 35 35 35 35 36 35 32 35 32 35 35 37 21 
140 254 250 249 250 251 252 252 251 252 252 252 254 252 254 254 254 254 254 
254 254 254 254 254 254 254 254 254 254 254 254 252 251 249 254 151 23 37 
37 15 172 107 20 40 34 34 34 32 26 36 39 35 40 39 37 37 29 
32 35 36 42 35 37 36 37 36 24 35 36 35 29 35 17 180 130 14 
41 39 31 195 254 251 254 254 254 254 254 254 254 254 254 252 254 252 252 
251 245 250 249 117 20 36 34 36 36 32 37 32 34 40 23 151 221 54 
25 45 34 35 32 31 39 30 24 213 124 17 37 35 35 35 35 35 34 
34 37 34 36 41 18 137 252 243 250 251 252 250 252 252 251 254 254 254 
254 254 254 254 254 254 254 254 254 254 254 254 254 254 254 254 254 254 254 
251 252 250 254 152 24 36 39 14 170 107 20 40 35 35 34 35 34 34 
36 35 37 36 35 35 35 35 35 35 34 34 31 34 32 32 35 36 36 
35 35 35 14 178 131 15 40 39 31 194 254 251 254 254 254 254 254 254 
254 254 254 254 254 251 254 249 247 254 158 14 42 37 35 36 31 40 32 
32 41 17 151 225 53 21 37 34 36 35 35 30 36 41 14 137 177 20 
41 32 35 35 35 35 35 34 36 35 35 21 136 254 244 246 252 251 252 
251 252 254 252 254 254 254 254 254 254 254 254 254 254 254 254 254 254 254 
254 254 254 254 254 254 254 252 252 249 254 151 23 37 39 14 173 108 20 
40 35 35 35 32 35 35 34 36 36 35 34 35 35 34 35 36 36 35 
35 35 36 35 32 34 36 35 34 36 18 180 129 14 40 37 30 192 254 
250 252 252 252 254 252 254 254 254 254 252 254 252 252 250 245 247 65 25 
40 35 35 37 32 37 28 47 23 142 219 51 24 41 32 31 37 39 34 
35 31 46 15 159 167 18 34 34 35 35 35 36 34 35 35 43 26 135 
252 246 247 250 252 252 252 254 254 252 254 254 254 254 254 254 254 254 254 
254 254 254 254 254 254 254 254 254 254 254 254 254 254 252 251 250 254 152 
24 37 40 12 172 107 23 42 37 37 37 39 37 37 36 37 39 40 39 
40 40 39 40 40 40 40 39 39 40 39 36 36 37 39 36 40 21 178 
130 13 39 37 26 191 254 251 254 254 254 254 254 254 254 254 254 254 254 
252 252 250 254 221 42 32 36 36 35 35 35 31 39 21 87 233 56 23 
42 37 30 35 36 36 37 29 41 23 78 238 83 21 40 34 35 36 35 
35 36 40 34 21 136 254 247 244 247 251 252 252 252 252 252 254 252 254 
254 254 254 254 254 254 254 254 254 254 254 254 254 254 254 254 254 254 254 
254 254 252 252 249 254 151 23 39 35 17 173 120 4 23 19 20 18 18 
17 19 19 19 21 19 23 24 21 24 20 23 23 21 23 21 23 23 20 
21 24 24 26 21 7 186 128 14 41 36 30 192 254 250 252 252 252 254 
252 254 254 254 254 254 254 251 254 250 249 234 50 29 35 36 34 36 32 
35 40 18 152 164 17 40 36 35 35 31 37 35 31 42 17 67 247 120 
21 37 35 32 35 32 34 35 36 34 21 137 254 249 249 251 249 251 252 
252 254 254 254 254 254 254 254 254 254 254 254 254 254 254 254 254 254 254 
254 254 254 254 254 254 254 254 254 252 254 247 254 152 23 39 35 19 161 
223 135 136 136 136 136 140 142 142 144 142 142 144 142 136 133 136 139 137 
140 145 145 145 145 145 139 134 131 137 131 128 156 247 117 14 41 35 31 
191 254 249 252 251 251 254 251 254 254 254 254 254 254 252 252 251 247 254 
106 23 42 30 36 35 34 36 36 20 147 164 9 39 34 31 36 35 34 
34 42 15 78 235 128 19 35 35 35 35 32 37 35 37 36 21 141 250 
240 249 252 251 251 252 254 252 252 254 254 254 254 254 254 254 254 254 254 
254 254 254 254 254 254 254 254 254 254 254 254 254 254 254 254 252 252 247 
254 151 21 39 39 17 155 254 254 254 254 254 254 238 212 222 212 217 214 
213 210 236 254 254 254 227 210 214 214 214 213 216 210 245 254 254 254 254 
254 254 112 12 39 35 28 189 254 247 252 251 252 254 252 254 254 254 254 
254 254 252 252 252 249 252 221 46 29 42 30 35 32 34 39 26 86 234 
58 23 45 32 35 36 36 40 20 72 238 125 14 37 34 30 35 36 35 
34 34 37 19 137 254 245 246 251 251 251 250 251 252 251 251 254 254 254 
254 254 254 254 254 254 254 254 254 254 254 254 254 254 254 254 254 254 252 
254 252 252 252 251 252 249 252 152 24 39 36 20 159 252 245 250 250 247 
250 150 10 30 28 28 26 39 13 137 251 238 250 87 12 32 29 29 29 
30 21 178 250 244 246 249 243 252 120 19 40 34 31 194 252 249 251 251 
252 252 252 254 254 254 254 254 254 252 252 251 249 247 254 213 54 24 37 
35 32 35 37 36 24 155 224 46 25 41 37 32 40 25 74 238 120 20 
37 35 32 35 35 34 34 35 35 21 139 254 247 250 250 251 251 252 251 
252 254 252 252 254 254 254 254 254 254 254 254 254 254 254 254 254 254 254 
254 254 254 254 254 254 254 254 254 252 254 252 252 246 252 142 12 34 31 
8 148 251 249 254 252 250 252 153 21 35 36 40 35 42 19 137 252 244 
249 103 24 37 36 36 36 39 25 190 254 246 251 250 246 251 98 10 35 
31 20 185 252 247 252 251 251 254 251 254 254 254 254 254 254 251 254 251 
247 249 246 254 210 67 34 36 35 32 35 32 42 23 159 230 56 19 37 
45 24 69 235 127 14 42 37 32 32 35 35 34 29 34 25 136 254 244 
246 249 252 251 251 251 251 252 254 252 252 254 254 254 254 254 254 254 254 
254 254 254 254 254 254 254 254 254 254 254 254 254 252 254 252 252 252 249 
252 245 251 213 114 103 96 119 213 254 246 251 250 250 254 156 21 39 39 
37 34 39 17 141 254 245 254 95 23 37 35 35 34 37 26 186 252 249 
247 249 241 254 188 116 90 102 128 229 251 245 250 251 252 252 252 254 254 
254 254 254 254 252 252 252 251 251 251 246 254 148 20 40 35 31 36 36 
31 32 19 162 227 58 15 10 83 239 125 18 36 39 36 32 36 34 35 
34 41 18 137 254 211 245 250 252 247 251 251 251 250 251 254 251 251 254 
254 254 254 254 254 254 254 254 254 254 254 254 254 254 254 254 254 254 254 
254 251 254 251 250 251 250 250 252 223 117 47 28 30 42 113 224 254 249 
252 249 254 155 19 41 35 36 37 41 19 142 254 247 252 91 20 39 36 
36 35 39 23 185 254 250 251 243 252 200 95 35 25 35 53 134 234 252 
247 251 250 252 252 254 254 254 254 254 254 252 254 252 250 252 251 250 251 
98 14 36 34 37 34 29 35 39 40 18 156 225 181 180 239 119 20 37 
35 35 35 35 34 35 36 40 17 140 254 134 87 250 249 250 249 252 250 
252 251 252 254 252 252 254 254 254 254 254 254 254 254 254 254 254 254 254 
254 254 254 254 254 254 254 254 252 254 252 250 247 247 254 224 58 7 81 
144 144 78 8 58 219 252 246 247 254 153 20 39 36 35 34 39 17 140 
254 246 254 92 21 37 35 35 34 39 24 186 254 250 249 251 199 34 15 
100 148 141 58 3 95 241 249 249 250 254 251 254 254 254 254 254 254 252 
254 252 252 252 252 250 251 218 68 24 41 34 39 36 34 39 32 37 25 
86 146 141 72 23 37 36 35 35 36 32 36 36 40 19 133 254 152 18 
72 239 252 250 251 252 252 252 252 252 254 252 252 254 254 254 254 254 254 
254 254 254 254 254 254 254 254 254 254 254 254 254 254 254 252 254 252 250 
250 251 250 96 8 144 252 254 252 249 137 6 100 250 244 249 254 152 21 
36 36 34 34 37 18 141 254 246 254 92 20 37 35 35 34 37 24 186 
254 250 250 239 59 29 177 252 254 254 243 117 2 139 254 244 252 252 252 
254 254 254 254 254 254 254 254 254 254 252 251 254 245 254 227 67 21 40 
34 32 37 39 32 35 46 24 12 23 23 42 35 35 35 35 35 36 34 
36 23 135 254 153 25 30 51 224 254 251 250 250 254 251 254 254 254 254 
254 254 254 254 254 254 254 254 254 254 254 254 254 254 254 254 254 254 254 
254 254 254 252 254 252 250 249 254 210 31 92 252 251 241 244 250 254 96 
25 210 252 247 254 152 20 36 36 35 34 39 19 142 254 247 254 91 21 
39 36 36 35 39 25 188 254 247 254 181 8 137 254 245 243 243 246 238 
53 50 241 245 251 252 252 254 254 254 254 254 254 252 254 252 252 252 252 
251 247 243 252 230 67 26 40 34 35 36 36 39 36 37 39 40 37 35 
34 35 36 34 35 37 37 24 136 254 147 19 34 41 26 200 252 247 250 
251 252 252 252 252 254 252 252 254 254 254 254 254 254 254 254 254 254 254 
254 254 254 254 254 254 254 254 254 254 252 252 252 251 247 252 174 12 164 
252 244 250 250 241 252 166 9 175 254 247 254 152 20 37 32 36 34 39 
17 141 254 247 254 91 21 39 35 36 35 39 25 188 254 249 252 135 15 
202 250 249 247 244 241 254 113 18 218 254 249 254 251 254 254 254 254 254 
254 254 254 254 254 254 252 252 250 243 247 254 225 69 23 37 35 36 34 
34 37 36 35 35 35 35 34 34 37 37 36 37 25 135 254 147 23 32 
40 40 20 169 252 245 247 254 252 254 254 254 254 254 254 254 254 254 254 
254 254 254 254 254 254 254 254 254 254 254 254 254 254 254 254 254 251 254 
251 250 247 252 167 8 169 251 245 249 244 244 251 166 12 169 252 241 254 
153 20 37 34 35 34 39 18 141 254 247 254 94 21 37 35 35 34 37 
24 186 254 247 252 130 13 203 251 245 252 247 243 251 119 13 217 254 251 
252 252 254 254 254 254 254 254 254 254 254 254 252 252 252 251 250 251 249 
254 225 64 21 37 32 30 37 36 34 35 34 35 35 36 34 37 34 37 
25 134 254 147 24 32 36 32 39 15 137 252 246 246 254 251 252 254 254 
254 254 254 254 254 254 254 254 254 254 254 254 254 254 254 254 254 254 254 
254 254 254 254 254 252 252 252 252 246 254 203 21 102 254 247 250 247 244 
254 113 15 202 254 246 254 151 20 41 35 31 32 39 18 140 252 246 252 
96 20 36 35 35 34 37 24 185 252 247 254 172 4 153 254 246 241 244 
241 245 67 43 238 251 252 252 252 254 254 254 254 254 254 254 254 254 254 
252 254 252 252 254 252 252 249 254 227 69 21 36 32 34 32 34 34 35 
35 35 35 31 36 39 25 137 254 152 20 35 37 34 34 37 17 107 254 
249 250 252 252 254 254 254 254 254 254 254 254 254 254 254 254 254 254 254 
254 254 254 254 254 254 254 254 254 254 254 254 252 252 252 252 246 251 250 
86 14 178 254 245 247 252 180 17 83 249 249 249 254 153 20 40 35 35 
34 41 20 141 254 247 254 92 23 40 36 37 36 40 24 188 252 247 251 
232 40 47 208 251 241 240 250 140 3 118 254 246 249 254 251 254 254 254 
254 254 254 254 254 254 254 254 252 252 254 252 252 252 252 238 252 229 64 
19 25 31 40 31 35 35 35 35 34 37 35 21 131 254 151 19 42 37 
36 34 35 37 24 75 247 252 251 252 252 252 254 254 254 254 254 254 254 
254 254 254 254 254 254 254 254 254 254 254 254 254 254 254 254 254 254 254 
251 254 252 250 249 249 254 202 34 20 189 252 252 196 14 34 207 252 245 
246 254 145 13 26 24 26 25 31 12 133 252 247 252 87 13 31 26 28 
28 28 18 175 254 250 249 254 175 20 39 224 252 252 152 0 67 227 252 
247 249 252 252 254 254 254 254 254 254 254 254 254 254 252 252 252 252 252 
252 252 250 247 249 254 217 122 177 62 29 41 34 34 34 35 36 39 17 
137 254 147 24 39 36 36 32 35 34 37 29 47 230 254 250 252 252 252 
254 254 254 254 254 254 254 254 254 254 254 254 254 254 254 254 254 254 254 
254 254 254 254 254 254 254 251 254 251 250 252 251 250 254 202 53 155 252 
252 167 61 197 254 249 251 251 254 222 194 192 195 196 196 194 190 218 251 
250 250 206 189 194 194 192 194 194 186 229 247 251 246 243 252 174 54 210 
250 252 128 76 222 254 247 246 251 254 252 254 254 254 254 254 254 254 254 
254 254 254 254 254 254 254 251 254 251 250 251 247 250 254 254 208 57 24 
42 37 35 39 35 19 140 254 148 21 41 36 36 34 36 35 35 36 32 
32 210 252 247 252 252 252 254 254 254 254 254 254 254 254 254 254 254 254 
254 254 254 254 254 254 254 254 254 254 254 254 254 254 252 254 252 252 252 
251 252 249 254 240 239 250 247 238 236 254 247 252 251 251 254 201 140 153 
147 150 147 150 142 191 251 249 245 174 141 148 150 150 148 152 144 217 250 
250 251 247 246 254 238 243 250 251 229 245 254 250 252 250 252 252 251 254 
254 254 254 254 254 254 254 254 254 254 252 252 254 252 252 252 252 250 249 
250 252 246 243 254 214 59 17 28 32 24 21 137 250 250 164 34 32 39 
31 30 35 35 35 35 36 24 178 254 247 252 252 252 254 254 254 254 254 
254 254 254 254 254 254 254 254 254 254 254 254 254 254 254 254 254 254 254 
254 254 254 254 254 254 254 252 252 251 250 250 251 250 251 254 251 249 251 
252 252 250 254 146 3 20 19 20 18 20 4 133 252 245 252 84 4 24 
21 20 21 23 9 179 254 249 249 252 249 247 252 252 251 250 254 250 250 
251 250 251 251 252 252 254 254 254 254 254 254 254 254 254 254 254 254 254 
254 254 254 252 254 252 252 252 252 249 250 245 254 218 113 58 52 81 174 
254 246 244 254 174 34 32 31 36 36 35 34 36 36 21 144 254 250 254 
251 254 254 254 254 254 254 254 254 254 254 254 254 254 254 254 254 254 254 
254 254 254 254 254 254 254 254 254 252 254 252 252 252 252 252 251 252 249 
250 250 250 250 251 251 252 252 252 249 254 148 30 40 37 41 34 43 20 
139 254 246 254 96 25 41 39 39 37 41 28 186 252 249 250 247 249 249 
250 247 249 249 249 246 247 251 250 250 252 252 252 254 254 254 254 254 254 
254 254 254 254 254 254 254 254 254 252 254 252 252 251 252 252 249 250 246 
246 254 254 241 238 250 254 245 249 249 245 254 178 25 31 39 34 34 35 
35 37 19 117 252 250 252 252 252 254 254 254 254 254 254 254 254 254 254 
254 254 254 254 254 254 254 254 254 254 254 254 254 254 254 254 254 254 254 
254 254 252 252 252 252 252 254 252 251 252 251 252 252 250 250 246 254 153 
18 40 32 31 29 40 19 136 252 244 252 98 19 36 34 35 34 39 25 
186 252 247 251 251 250 252 252 251 252 250 252 254 252 254 251 251 254 252 
252 254 254 254 254 254 254 254 254 254 254 254 254 254 254 254 254 252 252 
254 252 251 254 251 251 250 250 250 250 254 254 252 249 250 249 250 252 243 
254 177 40 28 39 34 34 31 39 24 85 254 249 252 252 252 254 254 254 
254 254 254 254 254 254 254 254 254 254 254 254 254 254 254 254 254 254 254 
254 254 254 254 254 254 254 254 254 254 254 254 254 252 254 254 254 254 252 
254 252 249 251 245 252 152 26 46 35 39 37 41 19 141 252 247 252 100 
24 42 39 40 39 43 28 185 252 247 251 254 252 249 251 254 252 254 254 
252 254 252 254 254 252 254 254 254 254 254 254 254 254 254 254 254 254 254 
254 254 254 254 254 254 254 252 254 252 252 252 251 252 251 252 251 252 251 
252 252 251 252 251 251 251 245 254 172 35 30 36 32 32 34 25 76 252 
246 252 252 252 254 254 254 254 254 254 254 254 254 254 254 254 254 254 254 
254 254 254 254 254 254 254 254 254 254 254 254 254 254 254 254 252 252 252 
252 252 252 252 252 252 252 252 251 247 241 244 254 146 8 21 25 18 19 
26 0 134 252 245 252 83 3 28 23 24 23 25 17 179 254 250 249 249 
250 252 250 251 252 251 252 252 252 254 252 252 254 252 252 254 254 254 254 
254 254 254 254 254 254 254 254 254 254 254 254 254 252 254 252 252 254 252 
252 252 252 252 252 252 252 252 252 252 252 251 254 250 247 244 254 177 29 
28 37 40 41 14 131 254 247 251 252 252 254 254 254 254 254 254 254 254 
254 254 254 254 254 254 254 254 254 254 254 254 254 254 254 254 254 254 254 
254 254 254 254 254 254 254 254 254 254 254 254 254 251 254 250 249 254 241 
247 211 155 159 158 157 155 157 153 214 252 247 254 189 155 158 159 158 159 
159 152 223 249 246 254 251 246 251 251 251 252 252 254 254 254 254 254 254 
254 254 254 254 254 254 254 254 254 254 254 254 254 254 254 254 254 254 254 
254 254 254 254 254 254 254 254 254 254 254 254 254 254 254 254 254 254 252 
252 251 250 250 243 254 186 41 21 23 15 79 235 251 249 252 252 252 254 
254 254 254 254 254 254 254 254 254 254 254 254 254 254 254 254 254 254 254 
254 254 254 254 254 254 254 254 254 254 254 254 254 254 254 254 254 254 254 
254 252 252 250 244 136 73 85 85 95 96 91 96 92 95 97 139 246 246 
232 122 87 95 97 96 96 97 94 83 76 84 166 249 252 250 250 251 254 
252 254 254 254 254 254 254 254 254 254 254 254 254 254 254 254 254 254 254 
254 254 254 254 254 254 254 254 254 254 254 252 254 252 252 252 252 252 252 
254 252 254 252 252 252 252 254 250 250 247 250 245 254 218 137 116 167 238 
252 251 249 250 254 251 254 254 254 254 254 254 254 254 254 254 254 254 254 
254 254 254 254 254 254 254 254 254 254 254 254 254 254 254 254 254 254 254 
254 254 254 254 254 254 254 254 252 251 254 152 7 31 25 25 25 24 25 
23 24 18 26 10 137 254 95 8 19 24 21 24 23 25 24 24 30 24 
20 180 250 249 247 252 252 252 254 254 254 254 254 254 254 254 254 254 254 
254 254 254 254 254 254 254 254 254 254 254 254 254 254 254 254 254 254 254 
254 254 254 254 254 254 254 254 254 254 254 254 254 251 252 252 250 251 252 
251 246 254 254 254 254 250 247 249 249 251 252 251 254 254 254 254 254 254 
254 254 254 254 254 254 254 254 254 254 254 254 254 254 254 254 254 254 254 
254 254 254 254 254 254 254 254 254 254 254 254 254 254 254 252 252 251 83 
19 41 35 39 39 39 37 40 35 36 37 28 84 230 47 35 37 37 37 
39 39 36 37 41 36 43 18 123 252 246 249 252 252 252 254 254 254 254 
254 254 254 254 254 254 254 254 254 254 254 254 254 254 254 254 254 254 254 
254 254 254 254 254 254 254 254 254 254 254 254 254 254 254 254 254 254 254 
254 252 254 252 251 252 252 252 252 250 249 250 249 249 251 251 251 252 254 
252 254 254 254 254 254 254 254 254 254 254 254 254 254 254 254 254 254 254 
254 254 254 254 254 254 254 254 254 254 254 254 254 254 254 254 254 254 254 
254 254 254 251 251 254 84 19 45 37 39 40 39 40 39 36 34 41 14 
96 230 59 30 36 35 37 37 37 40 35 37 35 39 17 133 254 244 252 
252 252 252 254 254 254 254 254 254 254 254 254 254 254 254 254 254 254 254 
254 254 254 254 254 254 254 254 254 254 254 254 254 254 254 254 254 254 254 
254 254 254 254 254 254 254 254 254 254 254 254 254 254 254 254 254 254 252 
252 254 252 251 251 252 254 252 254 254 254 254 254 254 254 254 254 254 254 
254 254 254 254 254 254 254 254 254 254 254 254 254 254 254 254 254 254 254 
254 254 254 254 254 254 254 254 254 254 252 250 252 188 26 17 20 24 23 
23 23 23 19 21 24 28 173 254 140 18 23 21 21 23 24 23 23 20 
24 23 50 214 250 247 247 252 252 252 254 254 254 254 254 254 254 254 254 
254 254 254 254 254 254 254 254 254 254 254 254 254 254 254 254 254 254 254 
254 254 254 254 254 254 254 254 254 254 254 254 254 254 254 252 254 252 252 
252 252 252 252 252 252 252 252 252 251 252 251 252 254 252 254 254 254 254 
254 254 254 254 254 254 254 254 254 254 254 254 254 254 254 254 254 254 254 
254 254 254 254 254 254 254 254 254 254 254 254 254 254 254 254 254 252 252 
252 254 192 140 144 141 142 141 141 142 142 144 140 196 254 247 247 181 139 
142 142 142 142 144 139 144 144 141 213 254 250 249 251 252 254 252 254 254 
254 254 254 254 254 254 254 254 254 254 254 254 254 254 254 254 254 254 254 
254 254 254 254 254 254 254 254 254 254 254 254 254 254 254 254 254 254 254 
254 254 254 254 254 254 254 254 254 254 254 254 254 254 254 254 254 254 254 
254 254 254 254 254 254 254 254 254 254 254 254 254 254 254 254 254 254 254 
254 254 254 254 254 254 254 254 254 254 254 254 254 254 254 254 254 254 254 
254 254 254 254 254 252 252 252 250 254 254 254 254 254 254 254 254 254 254 
254 254 250 249 247 254 254 254 254 254 254 254 254 254 254 254 254 245 249 
250 251 252 252 252 254 254 254 254 254 254 254 254 254 254 254 254 254 254 
254 254 254 254 254 254 254 254 254 254 254 254 254 254 254 254 254 254 254 
254 254 254 254 254 254 254 254 254 254 254 254 254 254 254 254 254 254 254 
254 254 254 254 254 254 254 254 254 254 254 254 254 254 254 254 254 254 254 
254 254 254 254 254 254 254 254 254 254 254 254 254 254 254 254 254 254 254 
254 254 254 254 254 254 254 254 254 254 254 254 252 254 252 251 250 250 250 
250 250 250 249 250 250 247 247 250 251 252 251 249 249 250 249 250 250 249 
250 250 249 249 250 250 251 251 250 252 254 252 254 254 254 254 254 254 254 
254 254 254 254 254 254 254 254 254 254 254 254 254 254 254 254 254 254 254 
254 254 254 254 254 254 254 254 254 254 254 254 254 254 254 254 254 254 254 
254 254 254 254 254 254 254 254 254 254 254 254 254 254 254 254 254 254 254 
254 254 254 254 254 254 254 254 254 254 254 254 254 254 254 254 254 254 254 
254 254 254 254 254 254 254 254 254 254 254 254 254 254 254 254 254 254 254 
252 252 252 252 252 252 252 252 252 252 252 252 252 252 252 252 251 251 254 
252 251 251 252 251 252 251 251 251 252 251 252 254 252 254 254 254 254 254 
254 254 254 254 254 254 254 254 254 254 254 254 254 254 254 254 254 254 254 
254 254 254 254 254 254 254 254 254 254 254 254 254 254 254 254 254 254 254 
254 254 254 254 254 254 254 254 254 254 254 254 254 254 254 254 254 254 254 
254 254 254 254 254 254 254 254 254 254 254 254 254 254 254 254 254 254 254 
254 254 254 254 254 254 254 254 254 254 254 254 254 254 254 254 254 254 254 
254 254 254 254 254 254 254 252 254 252 251 251 252 252 252 254 252 254 252 
251 252 251 251 250 251 251 252 254 251 251 251 251 251 251 250 251 252 251 
251 251 252 252 252 254 252 254 254 254 254 254 254 254 254 254 254 254 254 
254 254 254 254 254 254 254 254 254 254 254 254 254 254 254 254 254 254 254 
254 254 254 254 254 254 254 254 254 254 254 254 254 254 254 254 254 254 254 
254 254 254 254 254 254 254 254 254 254 254 254 254 254 254 254 254 254 254 
254 254 254 254 254 254 254 254 254 254 254 254 254 254 254 254 254 254 254 
254 254 254 254 254 254 254 254 254 254 254 254 254 254 254 254 254 254 254 
254 252 254 252 252 252 252 252 254 252 252 254 254 252 252 252 252 252 252 
252 252 252 252 252 252 252 254 252 252 254 252 254 252 254 254 254 254 254 
254 254 254 254 254 254 254 254 254 254 254 254 254 254 254 254 254 254 254 
254 254 254 254 254 254 254 254 254 254 254 254 254 254 254 254 254 254 254 
254 254 254 254 254 254 254 254 254 254 254 254 254 254 254 254 254 254 254 
254 254 254 254 254 254 254 254 254 254 254 254 254 254 254 254 254 254 254 
